<?xml version="1.0" encoding="UTF-8"?><svg id="a" xmlns="http://www.w3.org/2000/svg" viewBox="0 0 903.5 389.59"><defs><style>.b{fill-rule:evenodd;}</style></defs><g><path d="M154.07,0c14.09,5.4,28.21,10.65,42.26,16.23,76.26,30.25,150.19,69.32,221.79,117.01,18.17,12.1,35.92,25.45,53.76,38.51,3.44,2.52,6.62,6.01,9.53,9.66,3.35,4.21,3.23,8.17-.59,11.44-4.23,3.62-8.84,6.47-13.45,9.07-4.9,2.77-10,4.84-15,7.27-1.34,.65-2.62,1.54-3.68,3.56h221.12l.25-1.65C501.55,123.93,329.65,53.11,154.07,0Z"/><path d="M749.43,134.15c-81.04-8.23-241.58-23.75-241.71-23.38,5.87,2.98,11.73,5.98,17.61,8.92,14.5,7.25,28.87,14.9,43.6,21.46,5.23,2.33,11.42,3.12,17.05,2.65,30.96-2.59,61.84-6.51,92.83-8.53,23.1-1.5,46.3-.81,70.63-1.11Z"/></g><path class="b" d="M566.58,295.6l-45.73-.09-10.32,59.18-11.12-59.06-43.87-.17-9.91,94.04,32.49,.08,3.05-65.02,12.95,64.77,33.44,.18,13.03-65.14,2.91,65.06c.01,.19,29.87,0,32.75,0l-9.67-93.83Zm-464.24,56.5c-6.7-10.71-21.26-7.03-25.07-9.59,4-2.68,19.81-5.49,22.25-19.74,1.19-6.95-.45-12.3-3.69-16.63-9.35-12.53-38.05-10.63-52.84-10.58l-42.99-.05,.65,93.81,41.11,.24c21.28-.02,45.23,1.26,57.47-10.95,5.65-5.64,7.81-19,3.11-26.51Zm-35.53-30.98c3.29,1.91,2.84,5.7,.14,8.14-3.63,3.28-17.9,2.01-23.96,2.04l-12.94-.22-.16-11.47c2.71-.63,31.85-1.45,36.92,1.51Zm5,38.43c-.43,7.02-11.51,6.22-17.84,6.3l-24.12-.05,.16-13.09c8.12-.18,16.45-.07,24.57,.01,6.37,.07,17.7-.54,17.24,6.82Zm831.68-63.85h-31.5l2.15,71.1-32.25-71.11-47.09-.02,.15,93.66,32.61,.1-.95-68.98,30.95,68.96,45.81,.08c-.61-39.61-.54-54.96,.11-93.8ZM190,365.72l-.38-13.19,61.12,.07,.06-21.36h-61.05l-.18-12.1,70.31-.23-.16-23.22-100.51,.16,.11,93.6,100.56-.05,.85-24.87-70.73,1.18Zm520.22-70.25l-47.78,.05-35.84,93.82,32.1,.18,6.58-18.4h41.33l7.1,18.28,32.51,.14-36-94.06Zm-37.22,55.4l12.9-34.93,12.64,35.13-25.54-.19Zm-304.3,13.94l-.11-44.03,22.76,.47,.02-25.61-75.19,.19-.31,25.2,22.83-.48,.03,43.75-22.64-.14-.17,25,75.36,.14,.09-25.23-22.68,.73Z"/></svg>